<svg width="23" height="20" viewBox="0 0 23 20" fill="none" xmlns="http://www.w3.org/2000/svg">
<path d="M20.7143 10H17.1429V7.14286C17.1429 5.56696 18.4241 4.28571 20 4.28571H20.3571C20.9509 4.28571 21.4286 3.80804 21.4286 3.21429V1.07143C21.4286 0.477679 20.9509 0 20.3571 0H20C16.0536 0 12.8571 3.19643 12.8571 7.14286V17.8571C12.8571 19.0402 13.817 20 15 20H20.7143C21.8973 20 22.8571 19.0402 22.8571 17.8571V12.1429C22.8571 10.9598 21.8973 10 20.7143 10ZM7.85714 10H4.28571V7.14286C4.28571 5.56696 5.56696 4.28571 7.14286 4.28571H7.5C8.09375 4.28571 8.57143 3.80804 8.57143 3.21429V1.07143C8.57143 0.477679 8.09375 0 7.5 0H7.14286C3.19643 0 0 3.19643 0 7.14286V17.8571C0 19.0402 0.959821 20 2.14286 20H7.85714C9.04018 20 10 19.0402 10 17.8571V12.1429C10 10.9598 9.04018 10 7.85714 10Z" fill="#1996CD"/>
</svg>
