<svg width="120" height="42" viewBox="0 0 120 42" fill="none" xmlns="http://www.w3.org/2000/svg">
<path d="M20.6963 10.8697C20.7817 5.88637 24.8909 1.91465 29.8742 2.00139C34.8576 2.08681 38.8293 6.196 38.7426 11.1793C38.6612 15.9385 34.9096 19.7754 30.2306 20.0357" stroke="#FFDA00" stroke-width="3" stroke-miterlimit="10"/>
<path d="M23.3098 37.6404C23.3098 37.6404 30.7568 12.7837 30.8715 12.4034C30.9863 12.023 31.5055 11.1715 30.4298 10.1506C30.4244 10.1466 30.4204 10.1426 30.4151 10.1372C30.4098 10.1332 30.4058 10.1279 30.4018 10.1239C29.3221 9.10826 28.5013 9.67413 28.1276 9.81025C27.7539 9.94638 3.36302 18.7987 3.36302 18.7987C3.36302 18.7987 1.91766 19.2391 1.71347 20.6298C1.50928 22.0204 2.77046 22.653 2.77046 22.653L9.43539 25.7919L0.684502 34.9712C0.684502 34.9712 -0.620725 36.175 0.373542 37.3001C0.595084 37.551 1.64407 38.5759 2.64101 39.5422C3.66197 40.4817 4.74698 41.4707 5.00856 41.6775C6.18967 42.6064 7.31607 41.2344 7.31607 41.2344L15.9815 31.9737L19.4942 38.4492C19.4942 38.4492 20.1975 39.673 21.5748 39.39C22.9521 39.1084 23.3098 37.6404 23.3098 37.6404ZM16.5287 28.5652L5.84001 39.8638L3.98894 38.1155L2.13787 36.3672L12.8092 25.0512L3.81678 20.8766L28.9617 11.676L21.2091 37.3054L16.5287 28.5652Z" fill="#0BA7EB"/>
<path d="M33.1113 30.2476C33.1113 27.0606 35.4842 24.5996 38.6939 24.5996C41.8809 24.5996 44.2538 27.0606 44.2538 30.2476C44.2538 33.4346 41.8809 35.8956 38.6939 35.8956C35.4842 35.8956 33.1113 33.4346 33.1113 30.2476ZM38.6939 33.6988C40.5396 33.6988 41.969 32.3149 41.969 30.2489C41.969 28.183 40.541 26.799 38.6939 26.799C36.8255 26.799 35.3975 28.183 35.3975 30.2489C35.3975 32.3149 36.8255 33.6988 38.6939 33.6988Z" fill="#0BA7EB"/>
<path d="M46.6494 35.3031V25.1936C46.6494 24.9961 46.7588 24.864 46.9577 24.864H48.6286C48.8261 24.864 48.9369 24.9521 48.9369 25.2163L49.025 26.5349C49.6402 25.4365 50.7172 24.6011 52.4095 24.6011C54.6956 24.6011 56.3212 26.1839 56.3212 29.0186V35.3045C56.3212 35.502 56.189 35.6341 55.9915 35.6341H54.2552C54.0577 35.6341 53.9469 35.502 53.9469 35.3045V29.459C53.9469 27.7667 53.1115 26.7991 51.5954 26.7991C50.0793 26.7991 49.0236 27.7667 49.0236 29.459V35.3045C49.0236 35.502 48.9142 35.6341 48.7154 35.6341H46.9577C46.7602 35.6328 46.6494 35.5006 46.6494 35.3031Z" fill="#0BA7EB"/>
<path d="M58.6943 30.2035C58.6943 27.0392 60.8924 24.5996 64.1661 24.5996C67.3972 24.5996 69.2656 27.0392 69.2656 29.7204C69.2656 30.6653 69.0681 31.1271 68.2553 31.1271H61.0032C61.2888 32.8407 62.5633 33.9844 64.6946 33.9844C65.7503 33.9844 66.6071 33.7202 67.4639 33.149C67.596 33.0609 67.7282 33.0836 67.8149 33.2144L68.4301 34.0498C68.5623 34.226 68.5182 34.3581 68.3421 34.5329C67.3972 35.4565 66.0132 35.8956 64.4958 35.8956C60.9805 35.8956 58.6943 33.4132 58.6943 30.2035ZM67.1556 29.4121C67.0235 27.6545 65.8584 26.5988 64.1661 26.5988C62.4739 26.5988 61.2207 27.6318 60.9791 29.4121H67.1556Z" fill="#0BA7EB"/>
<path d="M75.4414 30.2262C75.4414 27.0179 77.837 24.5996 81.0453 24.5996C82.803 24.5996 84.2323 25.3256 85.1545 26.468C85.2867 26.6442 85.2867 26.7977 85.1545 26.9298L84.1656 27.8747C83.9894 28.0508 83.7706 28.0068 83.6384 27.8533C83.0005 27.2154 82.2758 26.7977 81.1548 26.7977C79.1329 26.7977 77.7262 28.2484 77.7262 30.2262C77.7262 32.2041 79.1329 33.6988 81.1988 33.6988C82.2972 33.6988 83.0232 33.2811 83.6384 32.6445C83.7919 32.491 84.0121 32.447 84.1883 32.6231L85.1772 33.568C85.3093 33.7002 85.3093 33.8536 85.1772 34.0298C84.2537 35.1722 82.8257 35.8982 81.0894 35.8982C77.8583 35.8955 75.4414 33.4559 75.4414 30.2262Z" fill="#0BA7EB"/>
<path d="M87.6611 35.3032V20.2491C87.6611 20.0516 87.7706 19.9194 87.9694 19.9194H89.7271C89.9246 19.9194 90.0354 20.0516 90.0354 20.2491V35.3032C90.0354 35.5007 89.9259 35.6329 89.7271 35.6329H87.9694C87.7719 35.6329 87.6611 35.5007 87.6611 35.3032Z" fill="#0BA7EB"/>
<path d="M92.8047 21.1712C92.8047 20.4238 93.3986 19.8086 94.1887 19.8086C94.9574 19.8086 95.5513 20.4238 95.5513 21.1712C95.5513 21.9399 94.9574 22.5552 94.1887 22.5552C93.3972 22.5552 92.8047 21.9399 92.8047 21.1712ZM92.9795 25.1937C92.9795 24.9961 93.089 24.864 93.2878 24.864H95.0681C95.2657 24.864 95.3764 24.9961 95.3764 25.1937V35.3032C95.3764 35.5007 95.267 35.6328 95.0681 35.6328H93.2878C93.0903 35.6328 92.9795 35.5007 92.9795 35.3032V25.1937Z" fill="#0BA7EB"/>
<path d="M97.7725 30.2262C97.7725 27.0179 100.168 24.5996 103.376 24.5996C105.134 24.5996 106.563 25.3256 107.486 26.468C107.618 26.6442 107.618 26.7977 107.486 26.9298L106.497 27.8747C106.32 28.0508 106.102 28.0068 105.969 27.8533C105.332 27.2154 104.607 26.7977 103.486 26.7977C101.464 26.7977 100.057 28.2484 100.057 30.2262C100.057 32.2041 101.464 33.6988 103.53 33.6988C104.628 33.6988 105.354 33.2811 105.969 32.6445C106.123 32.491 106.343 32.447 106.519 32.6231L107.508 33.568C107.64 33.7002 107.64 33.8536 107.508 34.0298C106.585 35.1722 105.157 35.8982 103.42 35.8982C100.189 35.8955 97.7725 33.4559 97.7725 30.2262Z" fill="#0BA7EB"/>
<path d="M109.991 35.3032V20.2491C109.991 20.0516 110.101 19.9194 110.3 19.9194H112.057C112.255 19.9194 112.365 20.0516 112.365 20.2491V29.8314L116.607 25.0402C116.716 24.9081 116.827 24.8641 116.98 24.8641H119.046C119.311 24.8641 119.353 25.0402 119.179 25.2378L115.376 29.435L119.772 35.2592C119.905 35.4567 119.838 35.6329 119.575 35.6329H117.685C117.509 35.6329 117.4 35.5888 117.29 35.4353L113.95 31.0619L112.367 32.7982V35.3032C112.367 35.5007 112.257 35.6329 112.058 35.6329H110.301C110.101 35.6329 109.991 35.5007 109.991 35.3032Z" fill="#0BA7EB"/>
</svg>
